<?xml version="1.0" encoding="UTF-8"?>
<svg id="_圖層_1" data-name="圖層_1" xmlns="http://www.w3.org/2000/svg" viewBox="0 0 248.94 212.21">
  <defs>
    <style>
      .cls-1 {
        fill: #fff;
      }

      .cls-2 {
        fill: #d1d1d1;
      }
    </style>
  </defs>
  <g>
    <g>
      <path class="cls-1" d="M10.51,188.74c-1.59,0-3.03-.28-4.33-.85-1.29-.56-2.4-1.34-3.32-2.34-.92-.99-1.62-2.14-2.12-3.43s-.75-2.67-.75-4.13c0-1.79.35-3.36,1.04-4.71.7-1.35,1.62-2.47,2.77-3.37,1.15-.89,2.41-1.56,3.78-2.01,1.37-.44,2.73-.66,4.08-.66,1.64,0,3.1.29,4.39.88,1.29.59,2.39,1.38,3.3,2.37.91.99,1.6,2.12,2.07,3.38.48,1.26.71,2.55.71,3.88,0,1.55-.31,2.98-.93,4.31-.62,1.33-1.46,2.49-2.54,3.48-1.07.99-2.31,1.77-3.71,2.34-1.4.56-2.89.85-4.46.85ZM11.67,188.05c1.5,0,2.85-.36,4.04-1.08,1.19-.72,2.14-1.77,2.85-3.17.71-1.39,1.06-3.09,1.06-5.11s-.38-3.92-1.14-5.52c-.76-1.6-1.85-2.86-3.25-3.78-1.4-.92-3.06-1.38-4.96-1.38-2.45,0-4.36.79-5.72,2.37-1.36,1.58-2.04,3.73-2.04,6.45,0,1.57.22,3.03.65,4.39.43,1.36,1.06,2.55,1.87,3.58.82,1.03,1.79,1.82,2.92,2.39,1.13.56,2.36.85,3.71.85ZM13.73,188.11c.62,1.11,1.39,2.08,2.3,2.93.92.85,1.89,1.51,2.92,1.99,1.03.47,2.01.71,2.93.71.2,0,.41,0,.63-.02.22-.01.41-.03.56-.05.07-.04.12,0,.15.12.03.12.03.19-.02.22-.49.11-.97.2-1.44.28-.48.08-.93.12-1.38.12-1.02,0-2.1-.24-3.25-.71-1.15-.48-2.27-1.17-3.35-2.07-1.08-.91-2.06-2.02-2.92-3.35l2.85-.17Z"/>
      <path class="cls-1" d="M42.74,171.27c0-1.08-.24-1.89-.71-2.44-.48-.54-1.2-.81-2.17-.81-.07,0-.1-.07-.1-.2s.03-.2.1-.2c.51,0,1.03.02,1.56.05.53.03,1.12.05,1.76.05.51,0,1.03-.02,1.56-.05.53-.03,1.02-.05,1.46-.05.04,0,.07.07.07.2s-.02.2-.07.2c-.88,0-1.55.27-1.99.81-.44.54-.66,1.35-.66,2.44v9.42c0,1.7-.33,3.16-.98,4.36-.65,1.2-1.56,2.13-2.74,2.77-1.17.64-2.54.96-4.11.96s-3.07-.32-4.29-.96-2.18-1.55-2.85-2.74c-.67-1.18-1.01-2.57-1.01-4.16v-10.61c0-.64-.07-1.12-.2-1.44-.13-.32-.4-.54-.81-.66-.41-.12-1.01-.18-1.81-.18-.04,0-.07-.07-.07-.2s.02-.2.07-.2c.53,0,1.12.02,1.77.05.65.03,1.35.05,2.11.05s1.49-.02,2.15-.05c.66-.03,1.24-.05,1.72-.05.07,0,.1.07.1.2s-.03.2-.1.2c-.8,0-1.39.07-1.79.2-.4.13-.66.36-.8.7-.13.33-.2.82-.2,1.46v9.38c0,2.63.59,4.63,1.77,5.98,1.18,1.36,2.83,2.04,4.96,2.04,1.99,0,3.54-.62,4.64-1.87,1.11-1.25,1.66-2.98,1.66-5.19v-9.45Z"/>
      <path class="cls-1" d="M70.09,187.95c.09,0,.13.07.13.2s-.04.2-.13.2c-.64,0-1.29-.02-1.96-.07-.66-.04-1.3-.07-1.92-.07-.69,0-1.28.02-1.79.07-.51.04-1.07.07-1.69.07-.09,0-.13-.07-.13-.2s.04-.2.13-.2c1.17,0,1.9-.17,2.19-.51.29-.34.21-.99-.23-1.94l-7.36-15.55.83-1.03-6.43,15.22c-.55,1.35-.59,2.32-.1,2.92.49.6,1.45.9,2.88.9.11,0,.17.07.17.2s-.06.2-.17.2c-.66,0-1.27-.02-1.82-.07-.55-.04-1.25-.07-2.09-.07-.8,0-1.43.02-1.91.07-.48.04-1.06.07-1.74.07-.09,0-.13-.07-.13-.2s.04-.2.13-.2c.6,0,1.12-.12,1.56-.35.44-.23.86-.64,1.24-1.23.39-.59.81-1.43,1.28-2.54l7-16.51c.04-.07.12-.1.23-.1s.18.03.2.1l7.82,16.48c.51,1.08.96,1.93,1.36,2.54.4.61.79,1.03,1.18,1.26.39.23.81.35,1.28.35ZM53.98,177.37l.5-.7h6.83l.23.7h-7.56Z"/>
      <path class="cls-1" d="M76.32,170.34v15.18c0,.6.07,1.05.2,1.36.13.31.39.51.76.61.38.1.94.15,1.69.15h3.61c1.28,0,2.3-.4,3.05-1.21.75-.81,1.24-1.86,1.46-3.17,0-.07.06-.09.18-.08.12.01.18.05.18.12-.07.6-.13,1.32-.2,2.17-.07.85-.1,1.64-.1,2.37,0,.33-.17.5-.5.5h-15.32s-.07-.07-.07-.2.02-.2.07-.2c.8,0,1.4-.06,1.81-.17.41-.11.68-.33.81-.66s.2-.82.2-1.46v-15.35c0-.64-.07-1.12-.2-1.44-.13-.32-.4-.54-.81-.66-.41-.12-1.01-.18-1.81-.18-.04,0-.07-.07-.07-.2s.02-.2.07-.2c.53,0,1.13.02,1.79.05.66.03,1.36.05,2.09.05.77,0,1.49-.02,2.15-.05.66-.03,1.25-.05,1.76-.05.07,0,.1.07.1.2s-.03.2-.1.2c-.8,0-1.4.06-1.81.18-.41.12-.68.35-.81.68-.13.33-.2.82-.2,1.46Z"/>
      <path class="cls-1" d="M94.46,185.66c0,.64.07,1.13.2,1.46s.4.55.81.66c.41.11,1.01.17,1.81.17.07,0,.1.07.1.2s-.03.2-.1.2c-.53,0-1.12-.01-1.77-.03-.65-.02-1.38-.03-2.17-.03-.75,0-1.46.01-2.12.03-.66.02-1.26.03-1.79.03-.07,0-.1-.07-.1-.2s.03-.2.1-.2c.8,0,1.4-.06,1.82-.17.42-.11.7-.33.83-.66.13-.33.2-.82.2-1.46v-15.35c0-.64-.07-1.12-.2-1.44-.13-.32-.41-.54-.83-.66-.42-.12-1.03-.18-1.82-.18-.07,0-.1-.07-.1-.2s.03-.2.1-.2c.53,0,1.13.02,1.79.05.66.03,1.37.05,2.12.05.8,0,1.53-.02,2.19-.05.66-.03,1.25-.05,1.76-.05.07,0,.1.07.1.2s-.03.2-.1.2c-.8,0-1.4.07-1.81.2-.41.13-.68.36-.81.7-.13.33-.2.82-.2,1.46v15.28Z"/>
      <path class="cls-1" d="M105.1,168.22c-1.37,0-2.4.35-3.1,1.06-.7.71-1.2,1.91-1.51,3.61,0,.04-.06.07-.18.07s-.18-.02-.18-.07c.04-.29.09-.69.13-1.21.04-.52.09-1.08.15-1.67.05-.6.1-1.18.13-1.74.03-.56.05-1.02.05-1.38,0-.11.06-.17.18-.17s.18.06.18.17c0,.22.11.38.33.48.22.1.47.17.75.2.28.03.51.05.71.05,1.9.07,4.12.1,6.66.1,1.57,0,2.81-.02,3.73-.05.92-.03,1.81-.05,2.67-.05.75,0,1.33-.05,1.74-.15.41-.1.67-.33.78-.68.02-.09.09-.13.2-.13s.17.04.17.13c-.02.33-.06.78-.1,1.36-.04.57-.08,1.17-.1,1.79-.02.62-.04,1.19-.07,1.72-.02.53-.03.94-.03,1.23,0,.04-.07.07-.2.07s-.2-.02-.2-.07c-.07-1.72-.42-2.93-1.06-3.63-.64-.7-1.7-1.04-3.18-1.04-.93,0-1.62.04-2.09.13-.46.09-.77.28-.91.58-.14.3-.22.78-.22,1.44v15.28c0,.64.08,1.13.23,1.46.15.33.46.55.91.66.45.11,1.14.17,2.07.17.07,0,.1.07.1.2s-.03.2-.1.2c-.58,0-1.23-.01-1.96-.03-.73-.02-1.53-.03-2.39-.03s-1.59.01-2.32.03c-.73.02-1.39.03-1.99.03-.04,0-.07-.07-.07-.2s.02-.2.07-.2c.91,0,1.6-.06,2.07-.17.48-.11.79-.33.94-.66.15-.33.23-.82.23-1.46v-15.35c0-.66-.08-1.14-.23-1.44-.15-.3-.46-.48-.93-.55s-1.16-.1-2.09-.1Z"/>
      <path class="cls-1" d="M129.5,179.33l-5.97-8.75c-.62-.95-1.21-1.61-1.76-1.99-.55-.38-1.19-.56-1.92-.56-.07,0-.1-.07-.1-.2s.03-.2.1-.2c.38,0,.77.02,1.19.05.42.03.81.05,1.16.05.6,0,1.18,0,1.74-.02.56-.01,1.09-.03,1.59-.05.5-.02.93-.03,1.31-.03.04,0,.07.07.07.2s-.02.2-.07.2c-.86,0-1.4.12-1.61.36-.21.24-.14.62.22,1.13l5.67,8.32-1.62,1.49ZM129.04,178.07l2.16-.3v7.89c0,.64.07,1.13.2,1.46s.4.55.8.66c.4.11,1.01.17,1.82.17.07,0,.1.07.1.2s-.03.2-.1.2c-.53,0-1.12-.01-1.77-.03-.65-.02-1.37-.03-2.14-.03-.73,0-1.44.01-2.12.03-.69.02-1.28.03-1.79.03-.07,0-.1-.07-.1-.2s.03-.2.1-.2c.8,0,1.4-.06,1.82-.17.42-.11.7-.33.83-.66s.2-.82.2-1.46v-7.59ZM129.86,178.8l4.97-7.63c.64-1.04.87-1.82.7-2.35-.18-.53-.76-.8-1.76-.8-.04,0-.07-.07-.07-.2s.02-.2.07-.2c.6,0,1.17.02,1.72.05.55.03,1.27.05,2.16.05.55,0,1-.02,1.34-.05.34-.03.76-.05,1.24-.05.04,0,.07.07.07.2s-.02.2-.07.2c-.53,0-1.07.13-1.63.4-.55.27-1.08.64-1.57,1.13-.5.49-.97,1.07-1.41,1.76l-5.21,7.99-.56-.5Z"/>
    </g>
    <g>
      <path class="cls-1" d="M177.19,167.94c-1.41,0-2.48.36-3.19,1.09-.72.73-1.24,1.97-1.55,3.72,0,.05-.06.07-.19.07s-.19-.02-.19-.07c.05-.3.09-.71.14-1.25.05-.53.1-1.11.15-1.72.06-.62.1-1.21.14-1.79.03-.58.05-1.05.05-1.42,0-.11.06-.17.19-.17s.19.06.19.17c0,.23.11.39.34.5s.48.17.77.21c.28.03.53.05.73.05,1.96.07,4.25.1,6.87.1,1.62,0,2.9-.02,3.84-.05.94-.03,1.86-.05,2.75-.05.77,0,1.37-.05,1.79-.15s.69-.34.8-.7c.02-.09.09-.14.2-.14s.17.05.17.14c-.02.34-.06.81-.1,1.4-.05.59-.08,1.21-.1,1.84-.02.64-.05,1.23-.07,1.78-.02.55-.03.97-.03,1.26,0,.05-.07.07-.21.07s-.21-.02-.21-.07c-.07-1.78-.43-3.02-1.09-3.74s-1.75-1.08-3.28-1.08c-.96,0-1.67.05-2.15.14-.48.09-.79.29-.94.6-.15.31-.22.8-.22,1.49v15.75c0,.66.08,1.16.24,1.5.16.34.47.57.94.68.47.11,1.18.17,2.14.17.07,0,.1.07.1.21s-.03.21-.1.21c-.59,0-1.26-.01-2.02-.03-.75-.02-1.57-.03-2.46-.03s-1.64.01-2.39.03c-.75.02-1.43.03-2.05.03-.05,0-.07-.07-.07-.21s.02-.21.07-.21c.93,0,1.65-.06,2.14-.17.49-.11.81-.34.97-.68.16-.34.24-.84.24-1.5v-15.82c0-.68-.08-1.18-.24-1.49s-.48-.5-.96-.56c-.48-.07-1.2-.1-2.15-.1Z"/>
      <path class="cls-1" d="M199.23,185.91c0,.66.07,1.16.21,1.5.14.34.42.57.84.68.42.11,1.04.17,1.86.17.07,0,.1.07.1.21s-.03.21-.1.21c-.55,0-1.16-.01-1.83-.03-.67-.02-1.42-.03-2.24-.03-.77,0-1.5.01-2.19.03-.68.02-1.3.03-1.84.03-.07,0-.1-.07-.1-.21s.03-.21.1-.21c.82,0,1.45-.06,1.88-.17.43-.11.72-.34.85-.68.14-.34.2-.84.2-1.5v-15.82c0-.66-.07-1.16-.2-1.49-.14-.33-.42-.56-.85-.68-.43-.13-1.06-.19-1.88-.19-.07,0-.1-.07-.1-.21s.03-.21.1-.21c.55,0,1.16.02,1.84.05.68.03,1.41.05,2.19.05.82,0,1.57-.02,2.25-.05.68-.03,1.29-.05,1.81-.05.07,0,.1.07.1.21s-.03.21-.1.21c-.82,0-1.44.07-1.86.2-.42.14-.7.38-.84.72-.14.34-.21.84-.21,1.5v15.75Z"/>
      <path class="cls-1" d="M207.84,184.96l.34-16.84.82.07-.34,16.77c-.02,1.18.18,2.03.6,2.55.42.51,1.19.77,2.31.77.05,0,.07.07.07.21s-.02.21-.07.21c-.5,0-1.02-.01-1.55-.03-.54-.02-1.12-.03-1.76-.03-.59,0-1.15.01-1.67.03-.52.02-1.01.03-1.47.03-.05,0-.07-.07-.07-.21s.02-.21.07-.21c.96,0,1.65-.26,2.07-.77.42-.51.64-1.36.67-2.55ZM231.51,188.27c.07,0,.1.07.1.21s-.03.21-.1.21c-.55,0-1.17-.01-1.86-.03-.69-.02-1.42-.03-2.17-.03s-1.41.01-2.03.03c-.63.02-1.19.03-1.69.03-.05,0-.07-.07-.07-.21s.02-.21.07-.21c1.14,0,1.87-.15,2.19-.44.32-.3.46-.93.41-1.91l-.65-16.5,1.13-1.57-8.88,20.6c-.02.09-.11.14-.27.14s-.26-.05-.31-.14l-8.57-18.28c-.78-1.62-1.93-2.43-3.45-2.43-.05,0-.07-.07-.07-.21s.02-.21.07-.21c.36,0,.76.01,1.18.03.42.02.77.03,1.04.03.36,0,.7-.01,1.01-.03.31-.02.54-.03.7-.03.32,0,.57.1.75.31.18.2.46.69.82,1.47l7.79,16.4-1.06,1.78,8.34-19.1c.11-.27.26-.48.44-.63.18-.15.38-.22.58-.22.14,0,.32.01.55.03.23.02.5.03.82.03.61,0,1.12-.01,1.5-.03.39-.02.8-.03,1.23-.03.05,0,.07.07.07.21s-.02.21-.07.21c-1.09,0-1.9.16-2.43.48-.52.32-.76.95-.72,1.88l.68,15.82c.02.66.1,1.16.24,1.5.14.34.42.57.84.68.42.11,1.04.17,1.86.17Z"/>
      <path class="cls-1" d="M248.08,188.68h-14.31s-.07-.07-.07-.21.02-.21.07-.21c.84,0,1.47-.06,1.88-.17.41-.11.69-.34.84-.68.15-.34.22-.84.22-1.5v-15.82c0-.66-.07-1.16-.22-1.49-.15-.33-.43-.56-.84-.68-.41-.13-1.04-.19-1.88-.19-.05,0-.07-.07-.07-.21s.02-.21.07-.21h13.73c.21,0,.31.1.31.31l.07,4.2c0,.07-.06.11-.19.12-.13.01-.19-.02-.19-.09-.07-1.23-.44-2.17-1.11-2.84-.67-.66-1.54-.99-2.61-.99h-2.08c-.77,0-1.36.06-1.76.17-.4.11-.67.33-.82.65-.15.32-.22.79-.22,1.4v15.51c0,.59.07,1.05.22,1.37.15.32.41.54.79.65.38.11.94.17,1.69.17h2.73c1.09,0,2.01-.39,2.75-1.18s1.22-1.85,1.45-3.19c0-.07.07-.09.21-.07.14.02.21.07.21.14-.09.59-.17,1.31-.22,2.15-.06.84-.09,1.63-.09,2.36,0,.34-.18.51-.55.51ZM246.17,180.72c0-1-.25-1.72-.73-2.15-.49-.43-1.3-.65-2.44-.65h-5.12v-.72h5.23c1.09,0,1.87-.19,2.34-.56.47-.38.7-.99.7-1.83,0-.05.07-.07.21-.07s.21.02.21.07c0,.68,0,1.21-.02,1.59-.01.38-.02.77-.02,1.18,0,.52.01,1.04.03,1.54.02.5.03,1.04.03,1.61,0,.05-.07.07-.21.07s-.21-.02-.21-.07Z"/>
    </g>
  </g>
  <g>
    <g>
      <path class="cls-2" d="M63,202h1.01v4.3h5.4v-4.3h1.01v9.91h-1.01v-4.69h-5.4v4.69h-1.01v-9.91Z"/>
      <path class="cls-2" d="M80.39,212.16c-2.95,0-5.16-2.2-5.16-5.21s2.21-5.21,5.16-5.21,5.16,2.2,5.16,5.21-2.21,5.21-5.16,5.21ZM80.39,202.67c-2.55,0-4.07,2-4.07,4.28s1.53,4.28,4.07,4.28,4.07-2,4.07-4.28-1.53-4.28-4.07-4.28Z"/>
      <path class="cls-2" d="M95.25,210.06l3.34-8.06h1.54v9.91h-1.01v-8.56h-.03l-3.58,8.56h-.53l-3.58-8.56h-.03v8.56h-1.01v-9.91h1.54l3.34,8.06Z"/>
      <path class="cls-2" d="M106.63,210.98h5.3v.92h-6.31v-9.91h6.14v.92h-5.14v3.37h4.8v.92h-4.8v3.76Z"/>
    </g>
    <g>
      <path class="cls-2" d="M127.76,203.58c-.44-.65-1.09-.98-1.94-.98-1.05,0-2.14.55-2.14,1.82,0,2.71,5.15,1.28,5.15,4.89,0,1.83-1.72,2.91-3.3,2.91-1.22,0-2.4-.44-3.16-1.49l.92-.67c.43.74,1.23,1.22,2.28,1.22s2.16-.65,2.16-1.83c0-2.84-5.15-1.26-5.15-4.94,0-1.94,1.62-2.85,3.25-2.85,1.13,0,2.04.31,2.84,1.22l-.89.69Z"/>
      <path class="cls-2" d="M136.95,211.96h-1.02v-9.1h-3.36v-.94h7.74v.94h-3.36v9.1Z"/>
      <path class="cls-2" d="M151.88,208.21c0,1.67-.67,4-3.67,4s-3.67-2.33-3.67-4v-6.3h1.02v6.18c0,2.89,1.89,3.18,2.65,3.18s2.65-.28,2.65-3.18v-6.18h1.02v6.3Z"/>
      <path class="cls-2" d="M157.12,201.92h3.33c2.51,0,5.28,1.67,5.28,5.02s-2.77,5.02-5.28,5.02h-3.33v-10.04ZM158.14,211.02h1.99c3.06,0,4.5-2.01,4.5-4.08s-1.43-4.08-4.5-4.08h-1.99v8.17Z"/>
      <path class="cls-2" d="M171.62,211.96h-1.02v-10.04h1.02v10.04Z"/>
      <path class="cls-2" d="M181.73,212.21c-2.99,0-5.23-2.23-5.23-5.28s2.24-5.28,5.23-5.28,5.23,2.23,5.23,5.28-2.24,5.28-5.23,5.28ZM181.73,202.6c-2.58,0-4.13,2.03-4.13,4.34s1.55,4.34,4.13,4.34,4.13-2.03,4.13-4.34-1.55-4.34-4.13-4.34Z"/>
    </g>
  </g>
  <g>
    <rect class="cls-1" x="139.25" y="4.17" width="77.98" height="3.32"/>
    <rect class="cls-1" x="176.58" y="5.82" width="3.32" height="134.65"/>
    <path class="cls-1" d="M160.49,160.85c-2.35-2.5-4.64-5.06-7.08-7.47-2.99-2.95-6.07-5.82-9.22-8.59-.61-.54-1.78-.81-2.59-.66-1.54.29-3.01.96-4.51,1.49-2.81.99-5.56,2.16-8.43,2.92-4.16,1.11-7.9-.43-11.43-2.47-.49-.29-.68-1.1-1.01-1.67.53-.27,1.04-.67,1.6-.79,3.98-.84,7.94-1.85,11.97-2.33,2.98-.35,6.04.02,9.07.09.42.01.84.16,1.5-.17-6.61-5-13.22-10-19.76-14.94-.26.08-.43.07-.49.15-6.86,9.29-16.44,13.85-27.54,15.42-10.44,1.48-20.54.17-30.09-4.62-11.91-5.97-17.68-15.82-18.53-28.85-.17-2.54-.16-5.09-.16-7.64-.01-19.75-.01-39.49-.01-59.24,0-8.19,1.07-16.16,5.18-23.42,4.78-8.46,12.18-13.58,21.42-16.01,10.64-2.8,21.35-2.9,31.78.84,13.14,4.72,20.31,14.61,22.73,28.08.66,3.67.86,7.47.87,11.21.08,20.45.02,40.89.08,61.34,0,1.14.46,2.32.9,3.4,1.26,3.1,2.62,6.16,4.05,9.5,3.37-2.64,5.04-6.66,7.2-10.93.57.97,1.17,1.66,1.41,2.47,1.15,3.81.53,7.49-1.38,10.88-1.3,2.32-3.12,4.34-4.46,6.64-1.06,1.83-1.83,3.86-2.55,5.86-.19.51.08,1.53.49,1.87,3.82,3.04,7.72,5.98,11.91,9.2-.2-.86-.32-1.43-.47-1.99-1.17-4.27-1.19-8.57-.04-12.82.42-1.55,1.39-2.95,2.13-4.4.89-1.74,1.8-3.48,2.92-5.64.54.79,1.04,1.36,1.36,2.02,2.52,5.23,1.76,10.33-.44,15.49-1.03,2.41-1.72,5.01-2.22,7.6-.38,1.99.68,3.59,2.18,5.02,3.27,3.12,6.42,6.36,9.56,9.62.95.98,1.68,2.17,2.5,3.27-.13.1-.26.21-.39.31ZM103.41,102.77c1.32-2.2,2.85-4.3,3.92-6.61,1.31-2.82,1.16-5.81.02-8.81-1.69,3.35-3.24,6.72-4.46,10.2-.53,1.5-.46,3.24-.51,4.88-.03.96.44,1.16,1.06.29,0,0-.04.05-.04.05ZM70.21,70.04c7.29,4.15,13.96,8.07,19.05,14.27-.56-2.61-1.37-4.99-2.14-7.38-.47-1.48-.49-3.22-2.5-3.66-.2-.04-.52-.47-.48-.54.88-1.48-.59-2.12-1.13-3.01-2.46-4.02-3.55-8.55-4.52-13.04-.55-2.54-.05-5.31,0-7.98,0-.22.19-.44.41-.94.61.55,1.22.91,1.56,1.43,3.44,5.36,6.03,11.08,6.7,17.49.33,3.16.11,6.41.76,9.49.68,3.2,2.12,6.24,3.22,9.35l.56-.13c-.23-6.73,3.12-12.05,6.91-17.83.86,1.45,1.66,3.3,1.68,4.46.08,4.23-.1,7.63-2.87,11.16-1.36,1.73-2.47,3.69-3.46,5.67-.37.74-.37,1.96-.02,2.7,1.43,2.98,3.05,5.87,4.65,8.76.64,1.15,1.43,2.22,2.36,3.64-.09-1.98-.26-3.5-.21-5.02.17-6.11,4.16-10.66,6.57-15.86.04-.08.22-.09.41-.16.15.15.38.29.5.49.22.38.48.78.56,1.21.83,4.37.98,8.74-.62,12.97-.94,2.49-2.28,4.84-3.17,7.34-.59,1.65-1.01,3.58.36,5.09,3.96,4.38,8.01,8.68,12.35,13.36,1.74-3.6,3.28-6.49,3.04-10-.11-1.63.27-3.29.44-4.93.32-3.12.93-6.24.94-9.36.09-19.24.07-38.48.01-57.72,0-3.05-.24-6.12-.67-9.13-1.88-13.47-10.36-23.11-23.42-26.41-8.98-2.27-18.06-2.24-27.02.16-10.8,2.89-17.82,9.91-21.4,20.45-1.64,4.82-2.14,9.82-2.14,14.87-.02,20.71-.01,41.41,0,62.12,0,1.97.09,3.95.29,5.91,1.02,9.85,5.45,17.61,13.94,22.95,8.86,5.58,18.58,7.02,28.78,6.07,7.64-.71,14.7-3.12,20.77-7.91,2.2-1.74,4.03-3.94,6.02-5.93-.14-.3-.28-.6-.41-.9-2.04.13-4.12.08-6.13.42-7.82,1.32-14.05-1.67-19.5-6.93-.24-.24-.38-.59-.87-1.37,7.52,1.75,15.04.14,21.88,3.6-5.28-5.6-10.19-11.4-14.21-17.93-.51-.83-2.17-1.33-3.29-1.31-2.01.05-4.05.47-6.02.97-6.69,1.7-12.24-.73-17.39-4.65-.47-.36-.73-.98-1.22-1.67,8.97-1.11,17.26.19,25.77,3.15-.98-2.07-1.99-3.72-2.56-5.5-1.21-3.8-4.01-5.8-7.53-6.9-4.47-1.4-7.66-4.52-10.87-7.63-1.19-1.15-1.57-1.31-3.19-4.14M138.53,108.87c-1.14,3.3-3.59,5.46-5.98,7.75-1.25,1.2-2.21,2.81-2.97,4.39-1.2,2.5-.94,5.1.26,7.62.15-1.41.3-2.82.45-4.23.11.01.21.02.32.03.03.56.06,1.13.08,1.5,1.84-2.12,3.79-4.17,5.52-6.39,2.45-3.13,3.4-6.68,2.32-10.68ZM144.44,141.28c1.08-3.16,2.16-6.38,3.3-9.58.49-1.37,1.2-2.67,1.68-4.04.87-2.53.68-4.94-.98-7.22-5.13,8.31-6.5,15.72-4.01,20.85ZM80.5,51.36c-.64,7.27-.17,13.82,4.53,19.42,1.06-6.98-.42-13.29-4.53-19.42ZM137.33,143.27c-2.44-1.1-15.76.17-18.03,1.75,4.75,3.12,12.97,2.7,18.17-1.2-2.56.7-4.67,1.28-6.79,1.86l-.13-.51c2.27-.63,4.55-1.27,6.78-1.89ZM126.93,125.58c.5-2.19,1.07-4.58,1.59-6.98.12-.55.27-1.17.13-1.68-.79-2.89-1.66-5.75-2.5-8.62-.23.03-.47.06-.7.09v9.72c-.15,0-.3,0-.45,0-.05-.85-.1-1.69-.16-2.73-1.15,2.29-1.43,4.4-.16,6.51.78,1.3,1.58,2.6,2.24,3.69ZM98.74,70.33c-2.15,2.16-5.38,10.66-5.24,13.77,1.56-3.21,3-6.15,4.47-9.18.17,2.15-.81,3.92-1.96,5.73-1.15,1.8-2.05,3.76-3.06,5.65l.46.23c1.07-1.64,1.95-3.46,3.26-4.88,3.06-3.3,3.04-7.02,2.07-11.32ZM104.14,119.18c-.05.19-.09.38-.14.57,1.08.31,2.15.63,3.23.94-.03.12-.06.23-.09.35-4.44-1.08-8.88-2.15-13.32-3.23-.04.17-.09.33-.13.5,4.24,3.11,9.28,3.43,14.31,3.72.46.03.94-.31,1.41-.48-.18-.21-.37-.42-.55-.63.83.17,1.66.34,2.49.5.05-.22.09-.44.14-.67l-7.34-1.58ZM73.65,73.47l-.47.5c2.92,4.82,7.13,8.09,12.81,10.36-1.24-1.52-2.57-2.26-3.57-3.41-2.49-2.86-5.79-5.01-8.77-7.45ZM89.57,98.01c0-.23.02-.45.03-.68-5.27-1.78-10.79.62-16.1-.75,2.93,2.56,6.42,2.28,9.99,2.22-.11-.47-.2-.82-.32-1.31,2.25.18,4.32.35,6.39.52ZM129.31,131.56c-2.56-3.37-4.77-6.29-6.99-9.21-.48.93-.99,1.93-1.52,2.95,2.75,2.03,5.43,3.99,8.5,6.26ZM80.6,99.57l.03.58c3.47,1.09,6.83.41,10.15-1.14-3.39.19-6.78.37-10.17.56ZM100.47,122.1c3.57,1.85,7.27,1.72,11.05.63-3.7-.21-7.38-.42-11.05-.63ZM97.4,117.5c0,.26-.02.52-.03.78,1.85.16,3.7.32,5.56.47,1.86.15,3.73.3,5.59.45.02-.15.03-.31.05-.46-3.72-.41-7.45-.82-11.17-1.23ZM83.56,95.67c-.02-.16-.03-.31-.05-.47h-9.01c0,.16,0,.31,0,.47h9.07ZM146.21,137.28c.18.05.35.11.53.16,1.07-2.49,2.13-4.98,3.2-7.46-.22-.09-.45-.18-.67-.28-1.02,2.53-2.04,5.06-3.06,7.58ZM84.86,82.01c.16-.17.31-.35.47-.52-1.95-1.69-3.91-3.38-5.86-5.07l-.36.43c1.92,1.72,3.84,3.44,5.75,5.16Z"/>
    <rect class="cls-1" x="82.59" y="50.93" width=".46" height="20.28" transform="translate(-11.33 19.53) rotate(-12.6)"/>
  </g>
</svg>