<?xml version="1.0" encoding="UTF-8"?>
<svg id="_圖層_1" data-name="圖層_1" xmlns="http://www.w3.org/2000/svg" viewBox="0 0 544.44 102.6">
  <defs>
    <style>
      .cls-1 {
        fill: #8b8b8b;
      }
    </style>
  </defs>
  <g>
    <g>
      <path d="M152.44,46.62c-2.74,0-5.22-.48-7.45-1.45-2.22-.97-4.13-2.31-5.71-4.02-1.58-1.71-2.8-3.68-3.65-5.91s-1.28-4.59-1.28-7.1c0-3.08.6-5.78,1.8-8.1,1.2-2.32,2.79-4.25,4.76-5.79,1.98-1.54,4.15-2.69,6.5-3.45,2.36-.76,4.7-1.14,7.02-1.14,2.81,0,5.33.5,7.56,1.51,2.23,1.01,4.12,2.37,5.68,4.08,1.56,1.71,2.75,3.65,3.57,5.82.82,2.17,1.23,4.39,1.23,6.68,0,2.66-.53,5.14-1.6,7.42-1.07,2.28-2.52,4.28-4.36,5.99-1.85,1.71-3.98,3.05-6.39,4.02-2.42.97-4.97,1.45-7.67,1.45ZM154.44,45.42c2.59,0,4.91-.62,6.96-1.85,2.05-1.24,3.69-3.05,4.91-5.45,1.22-2.4,1.83-5.33,1.83-8.79s-.66-6.74-1.97-9.5c-1.31-2.76-3.18-4.93-5.59-6.51-2.42-1.58-5.26-2.37-8.53-2.37-4.22,0-7.5,1.36-9.84,4.08-2.34,2.72-3.51,6.42-3.51,11.1,0,2.7.37,5.22,1.11,7.56.74,2.34,1.82,4.39,3.22,6.16,1.41,1.77,3.08,3.14,5.02,4.11,1.94.97,4.07,1.45,6.39,1.45ZM157.97,45.54c1.06,1.9,2.39,3.58,3.97,5.05,1.58,1.46,3.25,2.6,5.02,3.42,1.77.82,3.45,1.23,5.05,1.23.34,0,.7,0,1.08-.03.38-.02.7-.05.97-.09.11-.08.2,0,.26.2.06.21.05.33-.03.37-.84.19-1.66.35-2.48.48-.82.13-1.61.2-2.37.2-1.75,0-3.61-.41-5.59-1.23-1.98-.82-3.9-2.01-5.76-3.57-1.86-1.56-3.54-3.48-5.02-5.76l4.91-.29Z"/>
      <path d="M207.9,16.55c0-1.86-.41-3.26-1.23-4.19-.82-.93-2.06-1.4-3.74-1.4-.11,0-.17-.11-.17-.34s.06-.34.17-.34c.87,0,1.77.03,2.68.09.91.06,1.92.09,3.02.09.87,0,1.77-.03,2.68-.09.91-.06,1.75-.09,2.51-.09.08,0,.11.11.11.34s-.04.34-.11.34c-1.52,0-2.66.47-3.42,1.4-.76.93-1.14,2.33-1.14,4.19v16.21c0,2.93-.56,5.43-1.68,7.5-1.12,2.07-2.69,3.66-4.71,4.76-2.02,1.1-4.37,1.66-7.07,1.66s-5.28-.55-7.39-1.66-3.75-2.67-4.91-4.71c-1.16-2.03-1.74-4.42-1.74-7.16V14.9c0-1.1-.11-1.93-.34-2.48-.23-.55-.69-.93-1.4-1.14-.7-.21-1.74-.31-3.11-.31-.08,0-.11-.11-.11-.34s.04-.34.11-.34c.91,0,1.93.03,3.05.09,1.12.06,2.33.09,3.62.09s2.57-.03,3.71-.09c1.14-.06,2.13-.09,2.97-.09.11,0,.17.11.17.34s-.06.34-.17.34c-1.37,0-2.4.11-3.08.34-.68.23-1.14.63-1.37,1.2-.23.57-.34,1.41-.34,2.51v16.15c0,4.53,1.02,7.96,3.05,10.3,2.03,2.34,4.88,3.51,8.53,3.51,3.42,0,6.09-1.07,7.99-3.22,1.9-2.15,2.85-5.13,2.85-8.93v-16.26Z"/>
      <path d="M254.97,45.25c.15,0,.23.11.23.34s-.08.34-.23.34c-1.1,0-2.23-.04-3.37-.11-1.14-.08-2.24-.11-3.31-.11-1.18,0-2.21.04-3.08.11-.88.08-1.85.11-2.91.11-.15,0-.23-.11-.23-.34s.08-.34.23-.34c2.02,0,3.27-.29,3.77-.88.49-.59.36-1.7-.4-3.34l-12.67-26.76,1.43-1.77-11.07,26.19c-.95,2.32-1.01,3.99-.17,5.02.84,1.03,2.49,1.54,4.96,1.54.19,0,.29.11.29.34s-.1.34-.29.34c-1.14,0-2.19-.04-3.14-.11-.95-.08-2.15-.11-3.59-.11-1.37,0-2.46.04-3.28.11-.82.08-1.82.11-3,.11-.15,0-.23-.11-.23-.34s.08-.34.23-.34c1.03,0,1.92-.2,2.68-.6.76-.4,1.47-1.1,2.14-2.11.67-1.01,1.4-2.46,2.2-4.37l12.04-28.41c.08-.11.21-.17.4-.17s.3.06.34.17l13.47,28.36c.87,1.86,1.65,3.32,2.34,4.36.68,1.05,1.36,1.77,2.03,2.17.66.4,1.4.6,2.2.6ZM227.24,27.05l.86-1.2h11.75l.4,1.2h-13.01Z"/>
      <path d="M265.7,14.96v26.13c0,1.03.11,1.81.34,2.34.23.53.66.88,1.31,1.06.65.17,1.62.26,2.91.26h6.22c2.21,0,3.96-.69,5.25-2.08,1.29-1.39,2.13-3.2,2.51-5.45,0-.11.1-.16.31-.14.21.02.31.09.31.2-.11,1.03-.23,2.27-.34,3.74-.11,1.46-.17,2.82-.17,4.08,0,.57-.29.86-.86.86h-26.36c-.08,0-.11-.11-.11-.34s.04-.34.11-.34c1.37,0,2.41-.1,3.11-.29.7-.19,1.17-.57,1.4-1.14s.34-1.41.34-2.51V14.9c0-1.1-.11-1.93-.34-2.48-.23-.55-.69-.93-1.4-1.14-.7-.21-1.74-.31-3.11-.31-.08,0-.11-.11-.11-.34s.04-.34.11-.34c.91,0,1.94.03,3.08.09,1.14.06,2.34.09,3.59.09,1.33,0,2.57-.03,3.71-.09,1.14-.06,2.15-.09,3.02-.09.11,0,.17.11.17.34s-.06.34-.17.34c-1.37,0-2.41.11-3.11.31-.7.21-1.17.6-1.4,1.17-.23.57-.34,1.41-.34,2.51Z"/>
      <path d="M296.91,41.32c0,1.1.11,1.94.34,2.51s.69.95,1.4,1.14c.7.19,1.74.29,3.11.29.11,0,.17.11.17.34s-.06.34-.17.34c-.91,0-1.93-.02-3.05-.06-1.12-.04-2.37-.06-3.74-.06-1.29,0-2.51.02-3.65.06-1.14.04-2.17.06-3.08.06-.11,0-.17-.11-.17-.34s.06-.34.17-.34c1.37,0,2.41-.1,3.14-.29.72-.19,1.2-.57,1.43-1.14.23-.57.34-1.41.34-2.51V14.9c0-1.1-.11-1.93-.34-2.48-.23-.55-.7-.93-1.43-1.14-.72-.21-1.77-.31-3.14-.31-.11,0-.17-.11-.17-.34s.06-.34.17-.34c.91,0,1.94.03,3.08.09,1.14.06,2.36.09,3.65.09,1.37,0,2.62-.03,3.77-.09,1.14-.06,2.15-.09,3.02-.09.11,0,.17.11.17.34s-.06.34-.17.34c-1.37,0-2.41.11-3.11.34-.7.23-1.17.63-1.4,1.2-.23.57-.34,1.41-.34,2.51v26.3Z"/>
      <path d="M315.22,11.3c-2.36,0-4.14.61-5.33,1.83-1.2,1.22-2.06,3.29-2.6,6.22,0,.08-.11.11-.31.11s-.31-.04-.31-.11c.08-.49.15-1.19.23-2.08.08-.89.16-1.85.26-2.88.09-1.03.17-2.03.23-3,.06-.97.09-1.76.09-2.37,0-.19.1-.29.31-.29s.31.1.31.29c0,.38.19.66.57.83.38.17.81.29,1.28.34.48.06.88.09,1.23.09,3.27.11,7.09.17,11.47.17,2.7,0,4.84-.03,6.42-.09,1.58-.06,3.11-.09,4.59-.09,1.29,0,2.29-.09,3-.26.7-.17,1.15-.56,1.34-1.17.04-.15.15-.23.34-.23s.29.08.29.23c-.04.57-.1,1.35-.17,2.34-.08.99-.13,2.02-.17,3.08-.04,1.07-.08,2.05-.11,2.97-.04.91-.06,1.62-.06,2.11,0,.08-.11.11-.34.11s-.34-.04-.34-.11c-.11-2.97-.72-5.05-1.83-6.25-1.1-1.2-2.93-1.8-5.48-1.8-1.6,0-2.8.08-3.59.23-.8.15-1.32.48-1.57,1-.25.51-.37,1.34-.37,2.48v26.3c0,1.1.13,1.94.4,2.51.27.57.79.95,1.57,1.14.78.19,1.97.29,3.57.29.11,0,.17.11.17.34s-.06.34-.17.34c-.99,0-2.11-.02-3.37-.06-1.26-.04-2.62-.06-4.11-.06s-2.74.02-3.99.06c-1.26.04-2.4.06-3.42.06-.08,0-.11-.11-.11-.34s.04-.34.11-.34c1.56,0,2.75-.1,3.57-.29.82-.19,1.36-.57,1.63-1.14.27-.57.4-1.41.4-2.51V14.9c0-1.14-.13-1.97-.4-2.48-.27-.51-.8-.83-1.6-.94s-2-.17-3.59-.17Z"/>
      <path d="M357.22,30.42l-10.27-15.06c-1.07-1.63-2.07-2.78-3.02-3.42-.95-.65-2.05-.97-3.31-.97-.11,0-.17-.11-.17-.34s.06-.34.17-.34c.65,0,1.33.03,2.05.09.72.06,1.39.09,2,.09,1.03,0,2.03,0,3-.03.97-.02,1.88-.05,2.74-.09.86-.04,1.61-.06,2.25-.06.07,0,.11.11.11.34s-.04.34-.11.34c-1.48,0-2.41.21-2.77.63-.36.42-.24,1.06.37,1.94l9.76,14.32-2.8,2.57ZM356.42,28.25l3.71-.51v13.58c0,1.1.11,1.94.34,2.51s.69.95,1.37,1.14c.69.19,1.73.29,3.14.29.11,0,.17.11.17.34s-.06.34-.17.34c-.91,0-1.93-.02-3.05-.06-1.12-.04-2.35-.06-3.68-.06-1.26,0-2.47.02-3.65.06-1.18.04-2.21.06-3.08.06-.11,0-.17-.11-.17-.34s.06-.34.17-.34c1.37,0,2.42-.1,3.14-.29.72-.19,1.2-.57,1.43-1.14s.34-1.41.34-2.51v-13.07ZM357.85,29.51l8.56-13.12c1.1-1.79,1.5-3.14,1.2-4.05-.31-.91-1.31-1.37-3.02-1.37-.08,0-.12-.11-.12-.34s.04-.34.12-.34c1.03,0,2.02.03,2.97.09.95.06,2.19.09,3.71.09.95,0,1.72-.03,2.31-.09.59-.06,1.3-.09,2.14-.09.07,0,.11.11.11.34s-.04.34-.11.34c-.91,0-1.85.23-2.8.68-.95.46-1.85,1.1-2.71,1.94-.85.84-1.66,1.85-2.42,3.02l-8.96,13.75-.97-.86Z"/>
    </g>
    <g>
      <path d="M417.14,10.94c-2.4,0-4.21.62-5.43,1.86-1.22,1.24-2.1,3.35-2.64,6.34,0,.08-.11.12-.32.12s-.32-.04-.32-.12c.08-.5.15-1.21.23-2.12.08-.91.16-1.89.26-2.93.1-1.05.17-2.06.23-3.05.06-.99.09-1.79.09-2.41,0-.19.11-.29.32-.29s.32.1.32.29c0,.39.19.67.58.84s.82.29,1.31.35c.48.06.9.09,1.25.09,3.33.12,7.23.17,11.68.17,2.75,0,4.93-.03,6.54-.09,1.61-.06,3.17-.09,4.68-.09,1.32,0,2.33-.09,3.05-.26s1.17-.57,1.37-1.19c.04-.15.15-.23.35-.23s.29.08.29.23c-.04.58-.1,1.38-.17,2.38-.08,1.01-.14,2.05-.17,3.14-.04,1.09-.08,2.09-.12,3.02-.04.93-.06,1.65-.06,2.15,0,.08-.12.12-.35.12s-.35-.04-.35-.12c-.12-3.02-.74-5.14-1.86-6.36s-2.98-1.83-5.58-1.83c-1.63,0-2.85.08-3.66.23-.81.16-1.35.49-1.6,1.02-.25.52-.38,1.37-.38,2.53v26.79c0,1.12.14,1.98.41,2.56.27.58.8.97,1.6,1.16.79.19,2.01.29,3.63.29.12,0,.17.12.17.35s-.06.35-.17.35c-1.01,0-2.15-.02-3.43-.06-1.28-.04-2.67-.06-4.18-.06s-2.79.02-4.07.06c-1.28.04-2.44.06-3.49.06-.08,0-.12-.12-.12-.35s.04-.35.12-.35c1.59,0,2.8-.1,3.63-.29.83-.19,1.38-.58,1.66-1.16.27-.58.41-1.43.41-2.56V14.6c0-1.16-.14-2-.41-2.53s-.81-.84-1.63-.96c-.81-.12-2.03-.17-3.66-.17Z"/>
      <path d="M454.62,41.51c0,1.12.12,1.98.35,2.56.23.58.71.97,1.42,1.16.72.19,1.77.29,3.17.29.12,0,.17.12.17.35s-.06.35-.17.35c-.93,0-1.97-.02-3.11-.06-1.14-.04-2.41-.06-3.81-.06-1.32,0-2.56.02-3.72.06-1.16.04-2.21.06-3.14.06-.12,0-.17-.12-.17-.35s.06-.35.17-.35c1.39,0,2.46-.1,3.2-.29.74-.19,1.22-.58,1.45-1.16.23-.58.35-1.43.35-2.56V14.6c0-1.12-.12-1.97-.35-2.53-.23-.56-.72-.95-1.45-1.16-.74-.21-1.8-.32-3.2-.32-.12,0-.17-.12-.17-.35s.06-.35.17-.35c.93,0,1.98.03,3.14.09,1.16.06,2.4.09,3.72.09,1.4,0,2.67-.03,3.84-.09,1.16-.06,2.19-.09,3.08-.09.12,0,.17.12.17.35s-.06.35-.17.35c-1.4,0-2.45.12-3.17.35-.72.23-1.19.64-1.42,1.22-.23.58-.35,1.43-.35,2.56v26.79Z"/>
      <path d="M469.27,39.88l.58-28.65,1.39.12-.58,28.54c-.04,2.02.3,3.46,1.02,4.33.72.87,2.02,1.31,3.92,1.31.08,0,.12.12.12.35s-.04.35-.12.35c-.85,0-1.73-.02-2.64-.06-.91-.04-1.91-.06-2.99-.06-1.01,0-1.96.02-2.85.06-.89.04-1.72.06-2.5.06-.08,0-.12-.12-.12-.35s.04-.35.12-.35c1.63,0,2.8-.44,3.52-1.31.72-.87,1.09-2.32,1.13-4.33ZM509.54,45.52c.12,0,.17.12.17.35s-.06.35-.17.35c-.93,0-1.99-.02-3.17-.06-1.18-.04-2.41-.06-3.69-.06s-2.39.02-3.46.06c-1.07.04-2.02.06-2.88.06-.08,0-.12-.12-.12-.35s.04-.35.12-.35c1.94,0,3.18-.25,3.72-.76.54-.5.77-1.59.7-3.26l-1.1-28.07,1.92-2.67-15.11,35.05c-.04.16-.19.23-.46.23s-.45-.08-.52-.23l-14.59-31.09c-1.32-2.75-3.28-4.13-5.87-4.13-.08,0-.12-.12-.12-.35s.04-.35.12-.35c.62,0,1.29.02,2,.06.72.04,1.31.06,1.77.06.62,0,1.19-.02,1.71-.06.52-.04.92-.06,1.19-.06.54,0,.97.17,1.28.52.31.35.77,1.18,1.4,2.5l13.25,27.9-1.8,3.02,14.18-32.49c.19-.46.45-.82.76-1.08.31-.25.64-.38.99-.38.23,0,.54.02.93.06.39.04.85.06,1.4.06,1.05,0,1.9-.02,2.56-.06.66-.04,1.36-.06,2.09-.06.08,0,.12.12.12.35s-.04.35-.12.35c-1.86,0-3.24.27-4.13.81-.89.54-1.3,1.61-1.22,3.2l1.16,26.91c.04,1.12.17,1.98.41,2.56.23.58.71.97,1.42,1.16.72.19,1.77.29,3.17.29Z"/>
      <path d="M537.73,46.22h-24.35c-.08,0-.12-.12-.12-.35s.04-.35.12-.35c1.43,0,2.5-.1,3.2-.29.7-.19,1.17-.58,1.42-1.16.25-.58.38-1.43.38-2.56V14.6c0-1.12-.13-1.97-.38-2.53-.25-.56-.73-.95-1.42-1.16-.7-.21-1.76-.32-3.2-.32-.08,0-.12-.12-.12-.35s.04-.35.12-.35h23.36c.35,0,.52.17.52.52l.12,7.15c0,.12-.11.18-.32.2-.21.02-.32-.03-.32-.15-.12-2.09-.75-3.7-1.89-4.82-1.14-1.12-2.63-1.69-4.45-1.69h-3.54c-1.32,0-2.32.1-2.99.29-.68.19-1.14.56-1.39,1.1-.25.54-.38,1.34-.38,2.38v26.39c0,1.01.13,1.78.38,2.32.25.54.7.91,1.34,1.1.64.19,1.6.29,2.88.29h4.65c1.86,0,3.42-.67,4.68-2s2.08-3.15,2.47-5.43c0-.12.12-.15.35-.12.23.04.35.12.35.23-.16,1.01-.28,2.23-.38,3.66-.1,1.43-.14,2.77-.14,4.01,0,.58-.31.87-.93.87ZM534.48,32.68c0-1.7-.42-2.93-1.25-3.66-.83-.74-2.22-1.1-4.16-1.1h-8.72v-1.22h8.89c1.86,0,3.19-.32,3.98-.96.79-.64,1.19-1.68,1.19-3.11,0-.08.12-.12.35-.12s.35.04.35.12c0,1.16,0,2.06-.03,2.7-.02.64-.03,1.31-.03,2.01,0,.89.02,1.76.06,2.62.04.85.06,1.76.06,2.73,0,.08-.12.12-.35.12s-.35-.04-.35-.12Z"/>
    </g>
  </g>
  <g>
    <g>
      <path class="cls-1" d="M134.35,76.84h1.96v8.38h10.53v-8.38h1.96v19.32h-1.96v-9.14h-10.53v9.14h-1.96v-19.32Z"/>
      <path class="cls-1" d="M168.26,96.65c-5.76,0-10.07-4.28-10.07-10.15s4.31-10.15,10.07-10.15,10.07,4.28,10.07,10.15-4.31,10.15-10.07,10.15ZM168.26,78.15c-4.97,0-7.94,3.9-7.94,8.35s2.97,8.35,7.94,8.35,7.94-3.9,7.94-8.35-2.97-8.35-7.94-8.35Z"/>
      <path class="cls-1" d="M197.23,92.55l6.52-15.71h3v19.32h-1.96v-16.7h-.05l-6.98,16.7h-1.04l-6.98-16.7h-.05v16.7h-1.96v-19.32h3l6.52,15.71Z"/>
      <path class="cls-1" d="M219.4,94.36h10.34v1.8h-12.3v-19.32h11.98v1.8h-10.01v6.58h9.36v1.8h-9.36v7.34Z"/>
    </g>
    <g>
      <path class="cls-1" d="M260.61,79.91c-.86-1.27-2.13-1.91-3.79-1.91-2.05,0-4.17,1.08-4.17,3.54,0,5.28,10.04,2.49,10.04,9.54,0,3.57-3.35,5.67-6.44,5.67-2.38,0-4.67-.86-6.17-2.9l1.8-1.3c.83,1.44,2.41,2.38,4.45,2.38s4.2-1.27,4.2-3.57c0-5.53-10.04-2.46-10.04-9.62,0-3.79,3.15-5.56,6.33-5.56,2.21,0,3.98.61,5.53,2.38l-1.74,1.35Z"/>
      <path class="cls-1" d="M278.52,96.26h-1.99v-17.75h-6.55v-1.82h15.1v1.82h-6.55v17.75Z"/>
      <path class="cls-1" d="M307.63,88.96c0,3.26-1.3,7.8-7.16,7.8s-7.16-4.54-7.16-7.8v-12.28h1.99v12.05c0,5.64,3.68,6.19,5.17,6.19s5.17-.55,5.17-6.19v-12.05h1.99v12.28Z"/>
      <path class="cls-1" d="M317.85,76.68h6.5c4.89,0,10.29,3.26,10.29,9.79s-5.39,9.79-10.29,9.79h-6.5v-19.58ZM319.84,94.43h3.87c5.97,0,8.76-3.93,8.76-7.96s-2.79-7.96-8.76-7.96h-3.87v15.93Z"/>
      <path class="cls-1" d="M346.13,96.26h-1.99v-19.58h1.99v19.58Z"/>
      <path class="cls-1" d="M365.84,96.75c-5.83,0-10.2-4.34-10.2-10.29s4.37-10.29,10.2-10.29,10.2,4.34,10.2,10.29-4.37,10.29-10.2,10.29ZM365.84,78.01c-5.03,0-8.05,3.95-8.05,8.46s3.01,8.46,8.05,8.46,8.05-3.95,8.05-8.46-3.01-8.46-8.05-8.46Z"/>
    </g>
  </g>
  <g>
    <rect x="63.22" y="9.92" width="46.12" height="1.96"/>
    <rect x="85.3" y="10.9" width="1.96" height="79.64"/>
    <path d="M75.78,102.6c-1.39-1.48-2.74-2.99-4.19-4.42-1.77-1.74-3.59-3.44-5.45-5.08-.36-.32-1.05-.48-1.53-.39-.91.17-1.78.57-2.67.88-1.66.58-3.29,1.28-4.99,1.73-2.46.65-4.67-.26-6.76-1.46-.29-.17-.4-.65-.6-.99.31-.16.61-.4.95-.47,2.35-.49,4.7-1.1,7.08-1.38,1.76-.21,3.58.01,5.37.06.25,0,.5.09.89-.1-3.91-2.96-7.82-5.91-11.69-8.84-.16.04-.26.04-.29.09-4.06,5.5-9.72,8.19-16.29,9.12-6.18.88-12.15.1-17.8-2.73-7.04-3.53-10.46-9.36-10.96-17.07-.1-1.5-.09-3.01-.09-4.52,0-11.68,0-23.36,0-35.04,0-4.84.63-9.56,3.06-13.85,2.83-5,7.2-8.03,12.67-9.47,6.29-1.65,12.63-1.72,18.8.5,7.77,2.79,12.01,8.64,13.44,16.61.39,2.17.51,4.42.52,6.63.05,12.09.01,24.19.04,36.28,0,.67.27,1.37.53,2.01.74,1.83,1.55,3.65,2.4,5.62,2-1.56,2.98-3.94,4.26-6.47.34.57.69.98.84,1.46.68,2.25.31,4.43-.81,6.43-.77,1.37-1.85,2.57-2.64,3.93-.63,1.08-1.08,2.28-1.51,3.46-.11.3.05.91.29,1.11,2.26,1.8,4.56,3.54,7.05,5.44-.12-.51-.19-.85-.28-1.18-.69-2.53-.7-5.07-.02-7.58.25-.91.82-1.74,1.26-2.6.52-1.03,1.06-2.06,1.72-3.34.32.47.62.81.8,1.19,1.49,3.1,1.04,6.11-.26,9.16-.61,1.43-1.02,2.97-1.31,4.49-.23,1.18.4,2.12,1.29,2.97,1.93,1.84,3.8,3.76,5.65,5.69.56.58.99,1.28,1.48,1.93-.08.06-.15.12-.23.18ZM42.02,68.25c.78-1.3,1.68-2.54,2.32-3.91.78-1.67.69-3.44.01-5.21-1,1.98-1.91,3.98-2.64,6.04-.31.89-.27,1.92-.3,2.88-.02.57.26.69.63.17,0,0-.02.03-.02.03ZM22.38,48.88c4.31,2.46,8.26,4.77,11.27,8.44-.33-1.54-.81-2.95-1.27-4.37-.28-.87-.29-1.91-1.48-2.16-.12-.03-.31-.28-.28-.32.52-.88-.35-1.25-.67-1.78-1.46-2.38-2.1-5.06-2.67-7.71-.32-1.5-.03-3.14,0-4.72,0-.13.11-.26.24-.55.36.33.72.54.92.85,2.03,3.17,3.57,6.55,3.97,10.35.2,1.87.06,3.79.45,5.61.4,1.89,1.25,3.69,1.91,5.53l.33-.08c-.13-3.98,1.85-7.13,4.09-10.54.51.86.98,1.95.99,2.64.05,2.5-.06,4.51-1.7,6.6-.8,1.02-1.46,2.18-2.05,3.35-.22.44-.22,1.16,0,1.6.85,1.76,1.8,3.47,2.75,5.18.38.68.85,1.32,1.4,2.16-.05-1.17-.15-2.07-.13-2.97.1-3.62,2.46-6.31,3.88-9.38.02-.05.13-.05.24-.09.09.09.22.17.3.29.13.23.28.46.33.71.49,2.59.58,5.17-.37,7.67-.56,1.47-1.35,2.86-1.88,4.34-.35.98-.6,2.11.21,3.01,2.34,2.59,4.74,5.13,7.3,7.9,1.03-2.13,1.94-3.84,1.8-5.92-.07-.96.16-1.94.26-2.92.19-1.85.55-3.69.56-5.54.05-11.38.04-22.76,0-34.14,0-1.8-.14-3.62-.39-5.4-1.11-7.97-6.13-13.67-13.85-15.62-5.31-1.34-10.69-1.32-15.99.1-6.39,1.71-10.54,5.86-12.66,12.1-.97,2.85-1.26,5.81-1.27,8.8,0,12.25,0,24.5,0,36.74,0,1.17.05,2.34.17,3.5.6,5.82,3.22,10.42,8.24,13.58,5.24,3.3,10.99,4.15,17.03,3.59,4.52-.42,8.7-1.85,12.28-4.68,1.3-1.03,2.38-2.33,3.56-3.51-.08-.18-.16-.35-.25-.53-1.21.08-2.44.05-3.62.25-4.62.78-8.31-.99-11.54-4.1-.14-.14-.22-.35-.51-.81,4.45,1.03,8.9.08,12.94,2.13-3.12-3.31-6.03-6.74-8.41-10.61-.3-.49-1.29-.79-1.94-.77-1.19.03-2.39.28-3.56.58-3.96,1-7.24-.43-10.29-2.75-.28-.21-.43-.58-.72-.99,5.31-.65,10.21.11,15.24,1.86-.58-1.23-1.18-2.2-1.51-3.26-.71-2.25-2.37-3.43-4.45-4.08-2.64-.83-4.53-2.67-6.43-4.51-.7-.68-.93-.77-1.89-2.45M62.79,71.85c-.67,1.95-2.12,3.23-3.54,4.59-.74.71-1.31,1.66-1.76,2.6-.71,1.48-.56,3.01.15,4.51.09-.83.18-1.67.27-2.5.06,0,.13.01.19.02.02.33.03.67.05.89,1.09-1.25,2.24-2.47,3.27-3.78,1.45-1.85,2.01-3.95,1.37-6.31ZM66.28,91.03c.64-1.87,1.28-3.77,1.95-5.67.29-.81.71-1.58.99-2.39.52-1.49.4-2.92-.58-4.27-3.04,4.92-3.84,9.3-2.37,12.33ZM28.47,37.84c-.38,4.3-.1,8.17,2.68,11.48.63-4.13-.25-7.86-2.68-11.48ZM62.08,92.2c-1.44-.65-9.32.1-10.67,1.03,2.81,1.85,7.67,1.6,10.75-.71-1.51.41-2.76.76-4.01,1.1l-.07-.3c1.34-.37,2.69-.75,4.01-1.12ZM55.93,81.74c.3-1.3.63-2.71.94-4.13.07-.32.16-.69.08-.99-.47-1.71-.98-3.4-1.48-5.1-.14.02-.28.04-.42.05v5.75c-.09,0-.18,0-.27,0-.03-.5-.06-1-.09-1.61-.68,1.36-.85,2.6-.09,3.85.46.77.94,1.54,1.33,2.18ZM39.25,49.06c-1.27,1.28-3.18,6.31-3.1,8.14.93-1.9,1.77-3.64,2.65-5.43.1,1.27-.48,2.32-1.16,3.39-.68,1.07-1.21,2.22-1.81,3.34l.27.14c.63-.97,1.15-2.05,1.93-2.88,1.81-1.95,1.8-4.15,1.22-6.7ZM42.45,77.95c-.03.11-.06.23-.08.34.64.19,1.27.37,1.91.56-.02.07-.04.14-.05.2-2.63-.64-5.25-1.27-7.88-1.91-.03.1-.05.2-.08.29,2.51,1.84,5.49,2.03,8.46,2.2.27.02.55-.18.83-.28-.11-.12-.22-.25-.32-.37.49.1.98.2,1.48.3.03-.13.06-.26.08-.39l-4.34-.94ZM24.41,50.91l-.28.3c1.73,2.85,4.22,4.79,7.58,6.13-.74-.9-1.52-1.34-2.11-2.02-1.47-1.69-3.43-2.96-5.19-4.4ZM33.83,65.43c0-.13.01-.27.02-.4-3.12-1.06-6.38.37-9.52-.44,1.74,1.51,3.8,1.35,5.91,1.31-.07-.28-.12-.48-.19-.77,1.33.11,2.56.21,3.78.31ZM57.34,85.28c-1.51-2-2.82-3.72-4.13-5.45-.28.55-.59,1.14-.9,1.75,1.63,1.2,3.21,2.36,5.03,3.7ZM28.52,66.36l.02.34c2.05.64,4.04.24,6-.67-2.01.11-4.01.22-6.02.33ZM40.28,79.68c2.11,1.1,4.3,1.02,6.53.37-2.19-.12-4.37-.25-6.53-.37ZM38.46,76.96c0,.15-.01.31-.02.46,1.1.09,2.19.19,3.29.28,1.1.09,2.21.18,3.31.26,0-.09.02-.18.03-.27-2.2-.24-4.41-.49-6.61-.73ZM30.28,64.05c0-.09-.02-.18-.03-.28h-5.33c0,.09,0,.18,0,.28h5.37ZM67.33,88.66c.1.03.21.06.31.09.63-1.47,1.26-2.94,1.89-4.42-.13-.05-.26-.11-.4-.16-.6,1.5-1.21,2.99-1.81,4.49ZM31.05,55.97c.09-.1.18-.21.28-.31-1.16-1-2.31-2-3.47-3l-.21.25c1.13,1.02,2.27,2.03,3.4,3.05Z"/>
    <rect x="29.7" y="37.58" width=".27" height="12" transform="translate(-8.79 7.56) rotate(-12.6)"/>
  </g>
</svg>